<mxfile host="Electron" agent="Mozilla/5.0 (Windows NT 10.0; Win64; x64) AppleWebKit/537.36 (KHTML, like Gecko) draw.io/24.7.5 Chrome/126.0.6478.183 Electron/31.3.0 Safari/537.36" version="24.7.5">
  <diagram name="Page-1" id="3ECPBpG82NEqkbIwzrH1">
    <mxGraphModel dx="1662" dy="380" grid="0" gridSize="10" guides="1" tooltips="1" connect="1" arrows="1" fold="1" page="0" pageScale="1" pageWidth="850" pageHeight="1100" math="0" shadow="0">
      <root>
        <mxCell id="0" />
        <mxCell id="1" parent="0" />
        <mxCell id="fkK0YtPEtEqv72Plj34E-1" value="workspace_members" style="shape=table;startSize=30;container=1;collapsible=1;childLayout=tableLayout;fixedRows=1;rowLines=0;fontStyle=1;align=center;resizeLast=1;html=1;" parent="1" vertex="1">
          <mxGeometry x="-248" y="618" width="234" height="210" as="geometry" />
        </mxCell>
        <mxCell id="fkK0YtPEtEqv72Plj34E-2" value="" style="shape=tableRow;horizontal=0;startSize=0;swimlaneHead=0;swimlaneBody=0;fillColor=none;collapsible=0;dropTarget=0;points=[[0,0.5],[1,0.5]];portConstraint=eastwest;top=0;left=0;right=0;bottom=1;" parent="fkK0YtPEtEqv72Plj34E-1" vertex="1">
          <mxGeometry y="30" width="234" height="30" as="geometry" />
        </mxCell>
        <mxCell id="fkK0YtPEtEqv72Plj34E-3" value="PK" style="shape=partialRectangle;connectable=0;fillColor=none;top=0;left=0;bottom=0;right=0;fontStyle=1;overflow=hidden;whiteSpace=wrap;html=1;" parent="fkK0YtPEtEqv72Plj34E-2" vertex="1">
          <mxGeometry width="30" height="30" as="geometry">
            <mxRectangle width="30" height="30" as="alternateBounds" />
          </mxGeometry>
        </mxCell>
        <mxCell id="fkK0YtPEtEqv72Plj34E-4" value="id" style="shape=partialRectangle;connectable=0;fillColor=none;top=0;left=0;bottom=0;right=0;align=left;spacingLeft=6;fontStyle=5;overflow=hidden;whiteSpace=wrap;html=1;" parent="fkK0YtPEtEqv72Plj34E-2" vertex="1">
          <mxGeometry x="30" width="150" height="30" as="geometry">
            <mxRectangle width="150" height="30" as="alternateBounds" />
          </mxGeometry>
        </mxCell>
        <mxCell id="fkK0YtPEtEqv72Plj34E-14" value="Uuid" style="shape=partialRectangle;connectable=0;fillColor=none;top=0;left=0;bottom=0;right=0;align=left;spacingLeft=6;fontStyle=5;overflow=hidden;whiteSpace=wrap;html=1;" parent="fkK0YtPEtEqv72Plj34E-2" vertex="1">
          <mxGeometry x="180" width="54" height="30" as="geometry">
            <mxRectangle width="54" height="30" as="alternateBounds" />
          </mxGeometry>
        </mxCell>
        <mxCell id="fkK0YtPEtEqv72Plj34E-5" value="" style="shape=tableRow;horizontal=0;startSize=0;swimlaneHead=0;swimlaneBody=0;fillColor=none;collapsible=0;dropTarget=0;points=[[0,0.5],[1,0.5]];portConstraint=eastwest;top=0;left=0;right=0;bottom=0;" parent="fkK0YtPEtEqv72Plj34E-1" vertex="1">
          <mxGeometry y="60" width="234" height="30" as="geometry" />
        </mxCell>
        <mxCell id="fkK0YtPEtEqv72Plj34E-6" value="FK" style="shape=partialRectangle;connectable=0;fillColor=none;top=0;left=0;bottom=0;right=0;editable=1;overflow=hidden;whiteSpace=wrap;html=1;" parent="fkK0YtPEtEqv72Plj34E-5" vertex="1">
          <mxGeometry width="30" height="30" as="geometry">
            <mxRectangle width="30" height="30" as="alternateBounds" />
          </mxGeometry>
        </mxCell>
        <mxCell id="fkK0YtPEtEqv72Plj34E-7" value="user_id" style="shape=partialRectangle;connectable=0;fillColor=none;top=0;left=0;bottom=0;right=0;align=left;spacingLeft=6;overflow=hidden;whiteSpace=wrap;html=1;" parent="fkK0YtPEtEqv72Plj34E-5" vertex="1">
          <mxGeometry x="30" width="150" height="30" as="geometry">
            <mxRectangle width="150" height="30" as="alternateBounds" />
          </mxGeometry>
        </mxCell>
        <mxCell id="fkK0YtPEtEqv72Plj34E-15" value="Uuid" style="shape=partialRectangle;connectable=0;fillColor=none;top=0;left=0;bottom=0;right=0;align=left;spacingLeft=6;overflow=hidden;whiteSpace=wrap;html=1;" parent="fkK0YtPEtEqv72Plj34E-5" vertex="1">
          <mxGeometry x="180" width="54" height="30" as="geometry">
            <mxRectangle width="54" height="30" as="alternateBounds" />
          </mxGeometry>
        </mxCell>
        <mxCell id="fkK0YtPEtEqv72Plj34E-8" value="" style="shape=tableRow;horizontal=0;startSize=0;swimlaneHead=0;swimlaneBody=0;fillColor=none;collapsible=0;dropTarget=0;points=[[0,0.5],[1,0.5]];portConstraint=eastwest;top=0;left=0;right=0;bottom=0;" parent="fkK0YtPEtEqv72Plj34E-1" vertex="1">
          <mxGeometry y="90" width="234" height="30" as="geometry" />
        </mxCell>
        <mxCell id="fkK0YtPEtEqv72Plj34E-9" value="FK" style="shape=partialRectangle;connectable=0;fillColor=none;top=0;left=0;bottom=0;right=0;editable=1;overflow=hidden;whiteSpace=wrap;html=1;" parent="fkK0YtPEtEqv72Plj34E-8" vertex="1">
          <mxGeometry width="30" height="30" as="geometry">
            <mxRectangle width="30" height="30" as="alternateBounds" />
          </mxGeometry>
        </mxCell>
        <mxCell id="fkK0YtPEtEqv72Plj34E-10" value="workspace_id" style="shape=partialRectangle;connectable=0;fillColor=none;top=0;left=0;bottom=0;right=0;align=left;spacingLeft=6;overflow=hidden;whiteSpace=wrap;html=1;" parent="fkK0YtPEtEqv72Plj34E-8" vertex="1">
          <mxGeometry x="30" width="150" height="30" as="geometry">
            <mxRectangle width="150" height="30" as="alternateBounds" />
          </mxGeometry>
        </mxCell>
        <mxCell id="fkK0YtPEtEqv72Plj34E-16" value="Uuid" style="shape=partialRectangle;connectable=0;fillColor=none;top=0;left=0;bottom=0;right=0;align=left;spacingLeft=6;overflow=hidden;whiteSpace=wrap;html=1;" parent="fkK0YtPEtEqv72Plj34E-8" vertex="1">
          <mxGeometry x="180" width="54" height="30" as="geometry">
            <mxRectangle width="54" height="30" as="alternateBounds" />
          </mxGeometry>
        </mxCell>
        <mxCell id="fkK0YtPEtEqv72Plj34E-22" style="shape=tableRow;horizontal=0;startSize=0;swimlaneHead=0;swimlaneBody=0;fillColor=none;collapsible=0;dropTarget=0;points=[[0,0.5],[1,0.5]];portConstraint=eastwest;top=0;left=0;right=0;bottom=0;" parent="fkK0YtPEtEqv72Plj34E-1" vertex="1">
          <mxGeometry y="120" width="234" height="30" as="geometry" />
        </mxCell>
        <mxCell id="fkK0YtPEtEqv72Plj34E-23" style="shape=partialRectangle;connectable=0;fillColor=none;top=0;left=0;bottom=0;right=0;editable=1;overflow=hidden;whiteSpace=wrap;html=1;" parent="fkK0YtPEtEqv72Plj34E-22" vertex="1">
          <mxGeometry width="30" height="30" as="geometry">
            <mxRectangle width="30" height="30" as="alternateBounds" />
          </mxGeometry>
        </mxCell>
        <mxCell id="fkK0YtPEtEqv72Plj34E-24" value="email" style="shape=partialRectangle;connectable=0;fillColor=none;top=0;left=0;bottom=0;right=0;align=left;spacingLeft=6;overflow=hidden;whiteSpace=wrap;html=1;" parent="fkK0YtPEtEqv72Plj34E-22" vertex="1">
          <mxGeometry x="30" width="150" height="30" as="geometry">
            <mxRectangle width="150" height="30" as="alternateBounds" />
          </mxGeometry>
        </mxCell>
        <mxCell id="fkK0YtPEtEqv72Plj34E-25" value="Text" style="shape=partialRectangle;connectable=0;fillColor=none;top=0;left=0;bottom=0;right=0;align=left;spacingLeft=6;overflow=hidden;whiteSpace=wrap;html=1;" parent="fkK0YtPEtEqv72Plj34E-22" vertex="1">
          <mxGeometry x="180" width="54" height="30" as="geometry">
            <mxRectangle width="54" height="30" as="alternateBounds" />
          </mxGeometry>
        </mxCell>
        <mxCell id="fkK0YtPEtEqv72Plj34E-11" value="" style="shape=tableRow;horizontal=0;startSize=0;swimlaneHead=0;swimlaneBody=0;fillColor=none;collapsible=0;dropTarget=0;points=[[0,0.5],[1,0.5]];portConstraint=eastwest;top=0;left=0;right=0;bottom=0;" parent="fkK0YtPEtEqv72Plj34E-1" vertex="1">
          <mxGeometry y="150" width="234" height="30" as="geometry" />
        </mxCell>
        <mxCell id="fkK0YtPEtEqv72Plj34E-12" value="" style="shape=partialRectangle;connectable=0;fillColor=none;top=0;left=0;bottom=0;right=0;editable=1;overflow=hidden;whiteSpace=wrap;html=1;" parent="fkK0YtPEtEqv72Plj34E-11" vertex="1">
          <mxGeometry width="30" height="30" as="geometry">
            <mxRectangle width="30" height="30" as="alternateBounds" />
          </mxGeometry>
        </mxCell>
        <mxCell id="fkK0YtPEtEqv72Plj34E-13" value="status" style="shape=partialRectangle;connectable=0;fillColor=none;top=0;left=0;bottom=0;right=0;align=left;spacingLeft=6;overflow=hidden;whiteSpace=wrap;html=1;" parent="fkK0YtPEtEqv72Plj34E-11" vertex="1">
          <mxGeometry x="30" width="150" height="30" as="geometry">
            <mxRectangle width="150" height="30" as="alternateBounds" />
          </mxGeometry>
        </mxCell>
        <mxCell id="fkK0YtPEtEqv72Plj34E-17" value="enum" style="shape=partialRectangle;connectable=0;fillColor=none;top=0;left=0;bottom=0;right=0;align=left;spacingLeft=6;overflow=hidden;whiteSpace=wrap;html=1;" parent="fkK0YtPEtEqv72Plj34E-11" vertex="1">
          <mxGeometry x="180" width="54" height="30" as="geometry">
            <mxRectangle width="54" height="30" as="alternateBounds" />
          </mxGeometry>
        </mxCell>
        <mxCell id="fkK0YtPEtEqv72Plj34E-18" style="shape=tableRow;horizontal=0;startSize=0;swimlaneHead=0;swimlaneBody=0;fillColor=none;collapsible=0;dropTarget=0;points=[[0,0.5],[1,0.5]];portConstraint=eastwest;top=0;left=0;right=0;bottom=0;" parent="fkK0YtPEtEqv72Plj34E-1" vertex="1">
          <mxGeometry y="180" width="234" height="30" as="geometry" />
        </mxCell>
        <mxCell id="fkK0YtPEtEqv72Plj34E-19" style="shape=partialRectangle;connectable=0;fillColor=none;top=0;left=0;bottom=0;right=0;editable=1;overflow=hidden;whiteSpace=wrap;html=1;" parent="fkK0YtPEtEqv72Plj34E-18" vertex="1">
          <mxGeometry width="30" height="30" as="geometry">
            <mxRectangle width="30" height="30" as="alternateBounds" />
          </mxGeometry>
        </mxCell>
        <mxCell id="fkK0YtPEtEqv72Plj34E-20" value="role" style="shape=partialRectangle;connectable=0;fillColor=none;top=0;left=0;bottom=0;right=0;align=left;spacingLeft=6;overflow=hidden;whiteSpace=wrap;html=1;" parent="fkK0YtPEtEqv72Plj34E-18" vertex="1">
          <mxGeometry x="30" width="150" height="30" as="geometry">
            <mxRectangle width="150" height="30" as="alternateBounds" />
          </mxGeometry>
        </mxCell>
        <mxCell id="fkK0YtPEtEqv72Plj34E-21" value="enum" style="shape=partialRectangle;connectable=0;fillColor=none;top=0;left=0;bottom=0;right=0;align=left;spacingLeft=6;overflow=hidden;whiteSpace=wrap;html=1;" parent="fkK0YtPEtEqv72Plj34E-18" vertex="1">
          <mxGeometry x="180" width="54" height="30" as="geometry">
            <mxRectangle width="54" height="30" as="alternateBounds" />
          </mxGeometry>
        </mxCell>
        <mxCell id="fkK0YtPEtEqv72Plj34E-26" value="workspaces" style="shape=table;startSize=30;container=1;collapsible=1;childLayout=tableLayout;fixedRows=1;rowLines=0;fontStyle=1;align=center;resizeLast=1;html=1;" parent="1" vertex="1">
          <mxGeometry x="146" y="678" width="234" height="180" as="geometry" />
        </mxCell>
        <mxCell id="fkK0YtPEtEqv72Plj34E-27" value="" style="shape=tableRow;horizontal=0;startSize=0;swimlaneHead=0;swimlaneBody=0;fillColor=none;collapsible=0;dropTarget=0;points=[[0,0.5],[1,0.5]];portConstraint=eastwest;top=0;left=0;right=0;bottom=1;" parent="fkK0YtPEtEqv72Plj34E-26" vertex="1">
          <mxGeometry y="30" width="234" height="30" as="geometry" />
        </mxCell>
        <mxCell id="fkK0YtPEtEqv72Plj34E-28" value="PK" style="shape=partialRectangle;connectable=0;fillColor=none;top=0;left=0;bottom=0;right=0;fontStyle=1;overflow=hidden;whiteSpace=wrap;html=1;" parent="fkK0YtPEtEqv72Plj34E-27" vertex="1">
          <mxGeometry width="30" height="30" as="geometry">
            <mxRectangle width="30" height="30" as="alternateBounds" />
          </mxGeometry>
        </mxCell>
        <mxCell id="fkK0YtPEtEqv72Plj34E-29" value="id" style="shape=partialRectangle;connectable=0;fillColor=none;top=0;left=0;bottom=0;right=0;align=left;spacingLeft=6;fontStyle=5;overflow=hidden;whiteSpace=wrap;html=1;" parent="fkK0YtPEtEqv72Plj34E-27" vertex="1">
          <mxGeometry x="30" width="150" height="30" as="geometry">
            <mxRectangle width="150" height="30" as="alternateBounds" />
          </mxGeometry>
        </mxCell>
        <mxCell id="fkK0YtPEtEqv72Plj34E-30" value="Uuid" style="shape=partialRectangle;connectable=0;fillColor=none;top=0;left=0;bottom=0;right=0;align=left;spacingLeft=6;fontStyle=5;overflow=hidden;whiteSpace=wrap;html=1;" parent="fkK0YtPEtEqv72Plj34E-27" vertex="1">
          <mxGeometry x="180" width="54" height="30" as="geometry">
            <mxRectangle width="54" height="30" as="alternateBounds" />
          </mxGeometry>
        </mxCell>
        <mxCell id="fkK0YtPEtEqv72Plj34E-31" value="" style="shape=tableRow;horizontal=0;startSize=0;swimlaneHead=0;swimlaneBody=0;fillColor=none;collapsible=0;dropTarget=0;points=[[0,0.5],[1,0.5]];portConstraint=eastwest;top=0;left=0;right=0;bottom=0;" parent="fkK0YtPEtEqv72Plj34E-26" vertex="1">
          <mxGeometry y="60" width="234" height="30" as="geometry" />
        </mxCell>
        <mxCell id="fkK0YtPEtEqv72Plj34E-32" value="" style="shape=partialRectangle;connectable=0;fillColor=none;top=0;left=0;bottom=0;right=0;editable=1;overflow=hidden;whiteSpace=wrap;html=1;" parent="fkK0YtPEtEqv72Plj34E-31" vertex="1">
          <mxGeometry width="30" height="30" as="geometry">
            <mxRectangle width="30" height="30" as="alternateBounds" />
          </mxGeometry>
        </mxCell>
        <mxCell id="fkK0YtPEtEqv72Plj34E-33" value="name" style="shape=partialRectangle;connectable=0;fillColor=none;top=0;left=0;bottom=0;right=0;align=left;spacingLeft=6;overflow=hidden;whiteSpace=wrap;html=1;" parent="fkK0YtPEtEqv72Plj34E-31" vertex="1">
          <mxGeometry x="30" width="150" height="30" as="geometry">
            <mxRectangle width="150" height="30" as="alternateBounds" />
          </mxGeometry>
        </mxCell>
        <mxCell id="fkK0YtPEtEqv72Plj34E-34" value="Text" style="shape=partialRectangle;connectable=0;fillColor=none;top=0;left=0;bottom=0;right=0;align=left;spacingLeft=6;overflow=hidden;whiteSpace=wrap;html=1;" parent="fkK0YtPEtEqv72Plj34E-31" vertex="1">
          <mxGeometry x="180" width="54" height="30" as="geometry">
            <mxRectangle width="54" height="30" as="alternateBounds" />
          </mxGeometry>
        </mxCell>
        <mxCell id="fkK0YtPEtEqv72Plj34E-35" value="" style="shape=tableRow;horizontal=0;startSize=0;swimlaneHead=0;swimlaneBody=0;fillColor=none;collapsible=0;dropTarget=0;points=[[0,0.5],[1,0.5]];portConstraint=eastwest;top=0;left=0;right=0;bottom=0;" parent="fkK0YtPEtEqv72Plj34E-26" vertex="1">
          <mxGeometry y="90" width="234" height="30" as="geometry" />
        </mxCell>
        <mxCell id="fkK0YtPEtEqv72Plj34E-36" value="" style="shape=partialRectangle;connectable=0;fillColor=none;top=0;left=0;bottom=0;right=0;editable=1;overflow=hidden;whiteSpace=wrap;html=1;" parent="fkK0YtPEtEqv72Plj34E-35" vertex="1">
          <mxGeometry width="30" height="30" as="geometry">
            <mxRectangle width="30" height="30" as="alternateBounds" />
          </mxGeometry>
        </mxCell>
        <mxCell id="fkK0YtPEtEqv72Plj34E-37" value="description" style="shape=partialRectangle;connectable=0;fillColor=none;top=0;left=0;bottom=0;right=0;align=left;spacingLeft=6;overflow=hidden;whiteSpace=wrap;html=1;" parent="fkK0YtPEtEqv72Plj34E-35" vertex="1">
          <mxGeometry x="30" width="150" height="30" as="geometry">
            <mxRectangle width="150" height="30" as="alternateBounds" />
          </mxGeometry>
        </mxCell>
        <mxCell id="fkK0YtPEtEqv72Plj34E-38" value="Text" style="shape=partialRectangle;connectable=0;fillColor=none;top=0;left=0;bottom=0;right=0;align=left;spacingLeft=6;overflow=hidden;whiteSpace=wrap;html=1;" parent="fkK0YtPEtEqv72Plj34E-35" vertex="1">
          <mxGeometry x="180" width="54" height="30" as="geometry">
            <mxRectangle width="54" height="30" as="alternateBounds" />
          </mxGeometry>
        </mxCell>
        <mxCell id="fkK0YtPEtEqv72Plj34E-39" style="shape=tableRow;horizontal=0;startSize=0;swimlaneHead=0;swimlaneBody=0;fillColor=none;collapsible=0;dropTarget=0;points=[[0,0.5],[1,0.5]];portConstraint=eastwest;top=0;left=0;right=0;bottom=0;" parent="fkK0YtPEtEqv72Plj34E-26" vertex="1">
          <mxGeometry y="120" width="234" height="30" as="geometry" />
        </mxCell>
        <mxCell id="fkK0YtPEtEqv72Plj34E-40" style="shape=partialRectangle;connectable=0;fillColor=none;top=0;left=0;bottom=0;right=0;editable=1;overflow=hidden;whiteSpace=wrap;html=1;" parent="fkK0YtPEtEqv72Plj34E-39" vertex="1">
          <mxGeometry width="30" height="30" as="geometry">
            <mxRectangle width="30" height="30" as="alternateBounds" />
          </mxGeometry>
        </mxCell>
        <mxCell id="fkK0YtPEtEqv72Plj34E-41" value="owner_user_id" style="shape=partialRectangle;connectable=0;fillColor=none;top=0;left=0;bottom=0;right=0;align=left;spacingLeft=6;overflow=hidden;whiteSpace=wrap;html=1;" parent="fkK0YtPEtEqv72Plj34E-39" vertex="1">
          <mxGeometry x="30" width="150" height="30" as="geometry">
            <mxRectangle width="150" height="30" as="alternateBounds" />
          </mxGeometry>
        </mxCell>
        <mxCell id="fkK0YtPEtEqv72Plj34E-42" value="Uuid" style="shape=partialRectangle;connectable=0;fillColor=none;top=0;left=0;bottom=0;right=0;align=left;spacingLeft=6;overflow=hidden;whiteSpace=wrap;html=1;" parent="fkK0YtPEtEqv72Plj34E-39" vertex="1">
          <mxGeometry x="180" width="54" height="30" as="geometry">
            <mxRectangle width="54" height="30" as="alternateBounds" />
          </mxGeometry>
        </mxCell>
        <mxCell id="fkK0YtPEtEqv72Plj34E-43" value="" style="shape=tableRow;horizontal=0;startSize=0;swimlaneHead=0;swimlaneBody=0;fillColor=none;collapsible=0;dropTarget=0;points=[[0,0.5],[1,0.5]];portConstraint=eastwest;top=0;left=0;right=0;bottom=0;" parent="fkK0YtPEtEqv72Plj34E-26" vertex="1">
          <mxGeometry y="150" width="234" height="30" as="geometry" />
        </mxCell>
        <mxCell id="fkK0YtPEtEqv72Plj34E-44" value="" style="shape=partialRectangle;connectable=0;fillColor=none;top=0;left=0;bottom=0;right=0;editable=1;overflow=hidden;whiteSpace=wrap;html=1;" parent="fkK0YtPEtEqv72Plj34E-43" vertex="1">
          <mxGeometry width="30" height="30" as="geometry">
            <mxRectangle width="30" height="30" as="alternateBounds" />
          </mxGeometry>
        </mxCell>
        <mxCell id="fkK0YtPEtEqv72Plj34E-45" value="status" style="shape=partialRectangle;connectable=0;fillColor=none;top=0;left=0;bottom=0;right=0;align=left;spacingLeft=6;overflow=hidden;whiteSpace=wrap;html=1;" parent="fkK0YtPEtEqv72Plj34E-43" vertex="1">
          <mxGeometry x="30" width="150" height="30" as="geometry">
            <mxRectangle width="150" height="30" as="alternateBounds" />
          </mxGeometry>
        </mxCell>
        <mxCell id="fkK0YtPEtEqv72Plj34E-46" value="Uuid" style="shape=partialRectangle;connectable=0;fillColor=none;top=0;left=0;bottom=0;right=0;align=left;spacingLeft=6;overflow=hidden;whiteSpace=wrap;html=1;" parent="fkK0YtPEtEqv72Plj34E-43" vertex="1">
          <mxGeometry x="180" width="54" height="30" as="geometry">
            <mxRectangle width="54" height="30" as="alternateBounds" />
          </mxGeometry>
        </mxCell>
        <mxCell id="fkK0YtPEtEqv72Plj34E-51" value="users" style="shape=table;startSize=30;container=1;collapsible=1;childLayout=tableLayout;fixedRows=1;rowLines=0;fontStyle=1;align=center;resizeLast=1;html=1;" parent="1" vertex="1">
          <mxGeometry x="146" y="421" width="234" height="210" as="geometry" />
        </mxCell>
        <mxCell id="fkK0YtPEtEqv72Plj34E-52" value="" style="shape=tableRow;horizontal=0;startSize=0;swimlaneHead=0;swimlaneBody=0;fillColor=none;collapsible=0;dropTarget=0;points=[[0,0.5],[1,0.5]];portConstraint=eastwest;top=0;left=0;right=0;bottom=1;" parent="fkK0YtPEtEqv72Plj34E-51" vertex="1">
          <mxGeometry y="30" width="234" height="30" as="geometry" />
        </mxCell>
        <mxCell id="fkK0YtPEtEqv72Plj34E-53" value="PK" style="shape=partialRectangle;connectable=0;fillColor=none;top=0;left=0;bottom=0;right=0;fontStyle=1;overflow=hidden;whiteSpace=wrap;html=1;" parent="fkK0YtPEtEqv72Plj34E-52" vertex="1">
          <mxGeometry width="30" height="30" as="geometry">
            <mxRectangle width="30" height="30" as="alternateBounds" />
          </mxGeometry>
        </mxCell>
        <mxCell id="fkK0YtPEtEqv72Plj34E-54" value="id" style="shape=partialRectangle;connectable=0;fillColor=none;top=0;left=0;bottom=0;right=0;align=left;spacingLeft=6;fontStyle=5;overflow=hidden;whiteSpace=wrap;html=1;" parent="fkK0YtPEtEqv72Plj34E-52" vertex="1">
          <mxGeometry x="30" width="150" height="30" as="geometry">
            <mxRectangle width="150" height="30" as="alternateBounds" />
          </mxGeometry>
        </mxCell>
        <mxCell id="fkK0YtPEtEqv72Plj34E-55" value="Uuid" style="shape=partialRectangle;connectable=0;fillColor=none;top=0;left=0;bottom=0;right=0;align=left;spacingLeft=6;fontStyle=5;overflow=hidden;whiteSpace=wrap;html=1;" parent="fkK0YtPEtEqv72Plj34E-52" vertex="1">
          <mxGeometry x="180" width="54" height="30" as="geometry">
            <mxRectangle width="54" height="30" as="alternateBounds" />
          </mxGeometry>
        </mxCell>
        <mxCell id="fkK0YtPEtEqv72Plj34E-56" value="" style="shape=tableRow;horizontal=0;startSize=0;swimlaneHead=0;swimlaneBody=0;fillColor=none;collapsible=0;dropTarget=0;points=[[0,0.5],[1,0.5]];portConstraint=eastwest;top=0;left=0;right=0;bottom=0;" parent="fkK0YtPEtEqv72Plj34E-51" vertex="1">
          <mxGeometry y="60" width="234" height="30" as="geometry" />
        </mxCell>
        <mxCell id="fkK0YtPEtEqv72Plj34E-57" value="" style="shape=partialRectangle;connectable=0;fillColor=none;top=0;left=0;bottom=0;right=0;editable=1;overflow=hidden;whiteSpace=wrap;html=1;" parent="fkK0YtPEtEqv72Plj34E-56" vertex="1">
          <mxGeometry width="30" height="30" as="geometry">
            <mxRectangle width="30" height="30" as="alternateBounds" />
          </mxGeometry>
        </mxCell>
        <mxCell id="fkK0YtPEtEqv72Plj34E-58" value="email" style="shape=partialRectangle;connectable=0;fillColor=none;top=0;left=0;bottom=0;right=0;align=left;spacingLeft=6;overflow=hidden;whiteSpace=wrap;html=1;" parent="fkK0YtPEtEqv72Plj34E-56" vertex="1">
          <mxGeometry x="30" width="150" height="30" as="geometry">
            <mxRectangle width="150" height="30" as="alternateBounds" />
          </mxGeometry>
        </mxCell>
        <mxCell id="fkK0YtPEtEqv72Plj34E-59" value="Text" style="shape=partialRectangle;connectable=0;fillColor=none;top=0;left=0;bottom=0;right=0;align=left;spacingLeft=6;overflow=hidden;whiteSpace=wrap;html=1;" parent="fkK0YtPEtEqv72Plj34E-56" vertex="1">
          <mxGeometry x="180" width="54" height="30" as="geometry">
            <mxRectangle width="54" height="30" as="alternateBounds" />
          </mxGeometry>
        </mxCell>
        <mxCell id="fkK0YtPEtEqv72Plj34E-60" value="" style="shape=tableRow;horizontal=0;startSize=0;swimlaneHead=0;swimlaneBody=0;fillColor=none;collapsible=0;dropTarget=0;points=[[0,0.5],[1,0.5]];portConstraint=eastwest;top=0;left=0;right=0;bottom=0;" parent="fkK0YtPEtEqv72Plj34E-51" vertex="1">
          <mxGeometry y="90" width="234" height="30" as="geometry" />
        </mxCell>
        <mxCell id="fkK0YtPEtEqv72Plj34E-61" value="FK" style="shape=partialRectangle;connectable=0;fillColor=none;top=0;left=0;bottom=0;right=0;editable=1;overflow=hidden;whiteSpace=wrap;html=1;" parent="fkK0YtPEtEqv72Plj34E-60" vertex="1">
          <mxGeometry width="30" height="30" as="geometry">
            <mxRectangle width="30" height="30" as="alternateBounds" />
          </mxGeometry>
        </mxCell>
        <mxCell id="fkK0YtPEtEqv72Plj34E-62" value="default_workspace_id" style="shape=partialRectangle;connectable=0;fillColor=none;top=0;left=0;bottom=0;right=0;align=left;spacingLeft=6;overflow=hidden;whiteSpace=wrap;html=1;" parent="fkK0YtPEtEqv72Plj34E-60" vertex="1">
          <mxGeometry x="30" width="150" height="30" as="geometry">
            <mxRectangle width="150" height="30" as="alternateBounds" />
          </mxGeometry>
        </mxCell>
        <mxCell id="fkK0YtPEtEqv72Plj34E-63" value="Uuid" style="shape=partialRectangle;connectable=0;fillColor=none;top=0;left=0;bottom=0;right=0;align=left;spacingLeft=6;overflow=hidden;whiteSpace=wrap;html=1;" parent="fkK0YtPEtEqv72Plj34E-60" vertex="1">
          <mxGeometry x="180" width="54" height="30" as="geometry">
            <mxRectangle width="54" height="30" as="alternateBounds" />
          </mxGeometry>
        </mxCell>
        <mxCell id="fkK0YtPEtEqv72Plj34E-64" style="shape=tableRow;horizontal=0;startSize=0;swimlaneHead=0;swimlaneBody=0;fillColor=none;collapsible=0;dropTarget=0;points=[[0,0.5],[1,0.5]];portConstraint=eastwest;top=0;left=0;right=0;bottom=0;" parent="fkK0YtPEtEqv72Plj34E-51" vertex="1">
          <mxGeometry y="120" width="234" height="30" as="geometry" />
        </mxCell>
        <mxCell id="fkK0YtPEtEqv72Plj34E-65" style="shape=partialRectangle;connectable=0;fillColor=none;top=0;left=0;bottom=0;right=0;editable=1;overflow=hidden;whiteSpace=wrap;html=1;" parent="fkK0YtPEtEqv72Plj34E-64" vertex="1">
          <mxGeometry width="30" height="30" as="geometry">
            <mxRectangle width="30" height="30" as="alternateBounds" />
          </mxGeometry>
        </mxCell>
        <mxCell id="fkK0YtPEtEqv72Plj34E-66" value="email_verification_status" style="shape=partialRectangle;connectable=0;fillColor=none;top=0;left=0;bottom=0;right=0;align=left;spacingLeft=6;overflow=hidden;whiteSpace=wrap;html=1;" parent="fkK0YtPEtEqv72Plj34E-64" vertex="1">
          <mxGeometry x="30" width="150" height="30" as="geometry">
            <mxRectangle width="150" height="30" as="alternateBounds" />
          </mxGeometry>
        </mxCell>
        <mxCell id="fkK0YtPEtEqv72Plj34E-67" value="Enum" style="shape=partialRectangle;connectable=0;fillColor=none;top=0;left=0;bottom=0;right=0;align=left;spacingLeft=6;overflow=hidden;whiteSpace=wrap;html=1;" parent="fkK0YtPEtEqv72Plj34E-64" vertex="1">
          <mxGeometry x="180" width="54" height="30" as="geometry">
            <mxRectangle width="54" height="30" as="alternateBounds" />
          </mxGeometry>
        </mxCell>
        <mxCell id="fkK0YtPEtEqv72Plj34E-68" value="" style="shape=tableRow;horizontal=0;startSize=0;swimlaneHead=0;swimlaneBody=0;fillColor=none;collapsible=0;dropTarget=0;points=[[0,0.5],[1,0.5]];portConstraint=eastwest;top=0;left=0;right=0;bottom=0;" parent="fkK0YtPEtEqv72Plj34E-51" vertex="1">
          <mxGeometry y="150" width="234" height="30" as="geometry" />
        </mxCell>
        <mxCell id="fkK0YtPEtEqv72Plj34E-69" value="" style="shape=partialRectangle;connectable=0;fillColor=none;top=0;left=0;bottom=0;right=0;editable=1;overflow=hidden;whiteSpace=wrap;html=1;" parent="fkK0YtPEtEqv72Plj34E-68" vertex="1">
          <mxGeometry width="30" height="30" as="geometry">
            <mxRectangle width="30" height="30" as="alternateBounds" />
          </mxGeometry>
        </mxCell>
        <mxCell id="fkK0YtPEtEqv72Plj34E-70" value="display_name" style="shape=partialRectangle;connectable=0;fillColor=none;top=0;left=0;bottom=0;right=0;align=left;spacingLeft=6;overflow=hidden;whiteSpace=wrap;html=1;" parent="fkK0YtPEtEqv72Plj34E-68" vertex="1">
          <mxGeometry x="30" width="150" height="30" as="geometry">
            <mxRectangle width="150" height="30" as="alternateBounds" />
          </mxGeometry>
        </mxCell>
        <mxCell id="fkK0YtPEtEqv72Plj34E-71" value="Text" style="shape=partialRectangle;connectable=0;fillColor=none;top=0;left=0;bottom=0;right=0;align=left;spacingLeft=6;overflow=hidden;whiteSpace=wrap;html=1;" parent="fkK0YtPEtEqv72Plj34E-68" vertex="1">
          <mxGeometry x="180" width="54" height="30" as="geometry">
            <mxRectangle width="54" height="30" as="alternateBounds" />
          </mxGeometry>
        </mxCell>
        <mxCell id="fkK0YtPEtEqv72Plj34E-72" style="shape=tableRow;horizontal=0;startSize=0;swimlaneHead=0;swimlaneBody=0;fillColor=none;collapsible=0;dropTarget=0;points=[[0,0.5],[1,0.5]];portConstraint=eastwest;top=0;left=0;right=0;bottom=0;" parent="fkK0YtPEtEqv72Plj34E-51" vertex="1">
          <mxGeometry y="180" width="234" height="30" as="geometry" />
        </mxCell>
        <mxCell id="fkK0YtPEtEqv72Plj34E-73" style="shape=partialRectangle;connectable=0;fillColor=none;top=0;left=0;bottom=0;right=0;editable=1;overflow=hidden;whiteSpace=wrap;html=1;" parent="fkK0YtPEtEqv72Plj34E-72" vertex="1">
          <mxGeometry width="30" height="30" as="geometry">
            <mxRectangle width="30" height="30" as="alternateBounds" />
          </mxGeometry>
        </mxCell>
        <mxCell id="fkK0YtPEtEqv72Plj34E-74" value="photo_url" style="shape=partialRectangle;connectable=0;fillColor=none;top=0;left=0;bottom=0;right=0;align=left;spacingLeft=6;overflow=hidden;whiteSpace=wrap;html=1;" parent="fkK0YtPEtEqv72Plj34E-72" vertex="1">
          <mxGeometry x="30" width="150" height="30" as="geometry">
            <mxRectangle width="150" height="30" as="alternateBounds" />
          </mxGeometry>
        </mxCell>
        <mxCell id="fkK0YtPEtEqv72Plj34E-75" value="Text" style="shape=partialRectangle;connectable=0;fillColor=none;top=0;left=0;bottom=0;right=0;align=left;spacingLeft=6;overflow=hidden;whiteSpace=wrap;html=1;" parent="fkK0YtPEtEqv72Plj34E-72" vertex="1">
          <mxGeometry x="180" width="54" height="30" as="geometry">
            <mxRectangle width="54" height="30" as="alternateBounds" />
          </mxGeometry>
        </mxCell>
        <mxCell id="fkK0YtPEtEqv72Plj34E-80" style="edgeStyle=elbowEdgeStyle;rounded=0;orthogonalLoop=1;jettySize=auto;html=1;entryX=1;entryY=0.5;entryDx=0;entryDy=0;fontSize=12;startSize=8;endSize=8;exitX=1;exitY=0.5;exitDx=0;exitDy=0;" parent="1" source="fkK0YtPEtEqv72Plj34E-60" target="fkK0YtPEtEqv72Plj34E-27" edge="1">
          <mxGeometry relative="1" as="geometry">
            <mxPoint x="411" y="530" as="sourcePoint" />
            <Array as="points">
              <mxPoint x="424" y="633" />
            </Array>
          </mxGeometry>
        </mxCell>
        <mxCell id="fkK0YtPEtEqv72Plj34E-81" style="edgeStyle=orthogonalEdgeStyle;rounded=0;orthogonalLoop=1;jettySize=auto;html=1;exitX=1;exitY=0.5;exitDx=0;exitDy=0;entryX=0;entryY=0.5;entryDx=0;entryDy=0;fontSize=12;startSize=8;endSize=8;" parent="1" source="fkK0YtPEtEqv72Plj34E-8" target="fkK0YtPEtEqv72Plj34E-27" edge="1">
          <mxGeometry relative="1" as="geometry" />
        </mxCell>
        <mxCell id="fkK0YtPEtEqv72Plj34E-103" style="edgeStyle=orthogonalEdgeStyle;rounded=0;orthogonalLoop=1;jettySize=auto;html=1;exitX=1;exitY=0.5;exitDx=0;exitDy=0;entryX=0;entryY=0.5;entryDx=0;entryDy=0;fontSize=12;startSize=8;endSize=8;" parent="1" source="fkK0YtPEtEqv72Plj34E-5" target="fkK0YtPEtEqv72Plj34E-60" edge="1">
          <mxGeometry relative="1" as="geometry">
            <Array as="points">
              <mxPoint x="86" y="693" />
              <mxPoint x="86" y="526" />
            </Array>
          </mxGeometry>
        </mxCell>
        <mxCell id="HVOIu-wAEDUk3OJ05yQn-1" value="workspace_invite_tokens" style="shape=table;startSize=30;container=1;collapsible=1;childLayout=tableLayout;fixedRows=1;rowLines=0;fontStyle=1;align=center;resizeLast=1;html=1;" vertex="1" parent="1">
          <mxGeometry x="-606" y="618" width="259.75" height="210" as="geometry" />
        </mxCell>
        <mxCell id="HVOIu-wAEDUk3OJ05yQn-2" value="" style="shape=tableRow;horizontal=0;startSize=0;swimlaneHead=0;swimlaneBody=0;fillColor=none;collapsible=0;dropTarget=0;points=[[0,0.5],[1,0.5]];portConstraint=eastwest;top=0;left=0;right=0;bottom=1;" vertex="1" parent="HVOIu-wAEDUk3OJ05yQn-1">
          <mxGeometry y="30" width="259.75" height="30" as="geometry" />
        </mxCell>
        <mxCell id="HVOIu-wAEDUk3OJ05yQn-3" value="PK" style="shape=partialRectangle;connectable=0;fillColor=none;top=0;left=0;bottom=0;right=0;fontStyle=1;overflow=hidden;whiteSpace=wrap;html=1;" vertex="1" parent="HVOIu-wAEDUk3OJ05yQn-2">
          <mxGeometry width="30" height="30" as="geometry">
            <mxRectangle width="30" height="30" as="alternateBounds" />
          </mxGeometry>
        </mxCell>
        <mxCell id="HVOIu-wAEDUk3OJ05yQn-4" value="id" style="shape=partialRectangle;connectable=0;fillColor=none;top=0;left=0;bottom=0;right=0;align=left;spacingLeft=6;fontStyle=5;overflow=hidden;whiteSpace=wrap;html=1;" vertex="1" parent="HVOIu-wAEDUk3OJ05yQn-2">
          <mxGeometry x="30" width="150" height="30" as="geometry">
            <mxRectangle width="150" height="30" as="alternateBounds" />
          </mxGeometry>
        </mxCell>
        <mxCell id="HVOIu-wAEDUk3OJ05yQn-5" value="Uuid" style="shape=partialRectangle;connectable=0;fillColor=none;top=0;left=0;bottom=0;right=0;align=left;spacingLeft=6;fontStyle=5;overflow=hidden;whiteSpace=wrap;html=1;" vertex="1" parent="HVOIu-wAEDUk3OJ05yQn-2">
          <mxGeometry x="180" width="79.75" height="30" as="geometry">
            <mxRectangle width="79.75" height="30" as="alternateBounds" />
          </mxGeometry>
        </mxCell>
        <mxCell id="HVOIu-wAEDUk3OJ05yQn-6" value="" style="shape=tableRow;horizontal=0;startSize=0;swimlaneHead=0;swimlaneBody=0;fillColor=none;collapsible=0;dropTarget=0;points=[[0,0.5],[1,0.5]];portConstraint=eastwest;top=0;left=0;right=0;bottom=0;" vertex="1" parent="HVOIu-wAEDUk3OJ05yQn-1">
          <mxGeometry y="60" width="259.75" height="30" as="geometry" />
        </mxCell>
        <mxCell id="HVOIu-wAEDUk3OJ05yQn-7" value="FK" style="shape=partialRectangle;connectable=0;fillColor=none;top=0;left=0;bottom=0;right=0;editable=1;overflow=hidden;whiteSpace=wrap;html=1;" vertex="1" parent="HVOIu-wAEDUk3OJ05yQn-6">
          <mxGeometry width="30" height="30" as="geometry">
            <mxRectangle width="30" height="30" as="alternateBounds" />
          </mxGeometry>
        </mxCell>
        <mxCell id="HVOIu-wAEDUk3OJ05yQn-8" value="user_id" style="shape=partialRectangle;connectable=0;fillColor=none;top=0;left=0;bottom=0;right=0;align=left;spacingLeft=6;overflow=hidden;whiteSpace=wrap;html=1;" vertex="1" parent="HVOIu-wAEDUk3OJ05yQn-6">
          <mxGeometry x="30" width="150" height="30" as="geometry">
            <mxRectangle width="150" height="30" as="alternateBounds" />
          </mxGeometry>
        </mxCell>
        <mxCell id="HVOIu-wAEDUk3OJ05yQn-9" value="Uuid" style="shape=partialRectangle;connectable=0;fillColor=none;top=0;left=0;bottom=0;right=0;align=left;spacingLeft=6;overflow=hidden;whiteSpace=wrap;html=1;" vertex="1" parent="HVOIu-wAEDUk3OJ05yQn-6">
          <mxGeometry x="180" width="79.75" height="30" as="geometry">
            <mxRectangle width="79.75" height="30" as="alternateBounds" />
          </mxGeometry>
        </mxCell>
        <mxCell id="HVOIu-wAEDUk3OJ05yQn-10" value="" style="shape=tableRow;horizontal=0;startSize=0;swimlaneHead=0;swimlaneBody=0;fillColor=none;collapsible=0;dropTarget=0;points=[[0,0.5],[1,0.5]];portConstraint=eastwest;top=0;left=0;right=0;bottom=0;" vertex="1" parent="HVOIu-wAEDUk3OJ05yQn-1">
          <mxGeometry y="90" width="259.75" height="30" as="geometry" />
        </mxCell>
        <mxCell id="HVOIu-wAEDUk3OJ05yQn-11" value="" style="shape=partialRectangle;connectable=0;fillColor=none;top=0;left=0;bottom=0;right=0;editable=1;overflow=hidden;whiteSpace=wrap;html=1;" vertex="1" parent="HVOIu-wAEDUk3OJ05yQn-10">
          <mxGeometry width="30" height="30" as="geometry">
            <mxRectangle width="30" height="30" as="alternateBounds" />
          </mxGeometry>
        </mxCell>
        <mxCell id="HVOIu-wAEDUk3OJ05yQn-12" value="token" style="shape=partialRectangle;connectable=0;fillColor=none;top=0;left=0;bottom=0;right=0;align=left;spacingLeft=6;overflow=hidden;whiteSpace=wrap;html=1;" vertex="1" parent="HVOIu-wAEDUk3OJ05yQn-10">
          <mxGeometry x="30" width="150" height="30" as="geometry">
            <mxRectangle width="150" height="30" as="alternateBounds" />
          </mxGeometry>
        </mxCell>
        <mxCell id="HVOIu-wAEDUk3OJ05yQn-13" value="Uuid" style="shape=partialRectangle;connectable=0;fillColor=none;top=0;left=0;bottom=0;right=0;align=left;spacingLeft=6;overflow=hidden;whiteSpace=wrap;html=1;" vertex="1" parent="HVOIu-wAEDUk3OJ05yQn-10">
          <mxGeometry x="180" width="79.75" height="30" as="geometry">
            <mxRectangle width="79.75" height="30" as="alternateBounds" />
          </mxGeometry>
        </mxCell>
        <mxCell id="HVOIu-wAEDUk3OJ05yQn-14" style="shape=tableRow;horizontal=0;startSize=0;swimlaneHead=0;swimlaneBody=0;fillColor=none;collapsible=0;dropTarget=0;points=[[0,0.5],[1,0.5]];portConstraint=eastwest;top=0;left=0;right=0;bottom=0;" vertex="1" parent="HVOIu-wAEDUk3OJ05yQn-1">
          <mxGeometry y="120" width="259.75" height="30" as="geometry" />
        </mxCell>
        <mxCell id="HVOIu-wAEDUk3OJ05yQn-15" style="shape=partialRectangle;connectable=0;fillColor=none;top=0;left=0;bottom=0;right=0;editable=1;overflow=hidden;whiteSpace=wrap;html=1;" vertex="1" parent="HVOIu-wAEDUk3OJ05yQn-14">
          <mxGeometry width="30" height="30" as="geometry">
            <mxRectangle width="30" height="30" as="alternateBounds" />
          </mxGeometry>
        </mxCell>
        <mxCell id="HVOIu-wAEDUk3OJ05yQn-16" value="expires_at" style="shape=partialRectangle;connectable=0;fillColor=none;top=0;left=0;bottom=0;right=0;align=left;spacingLeft=6;overflow=hidden;whiteSpace=wrap;html=1;" vertex="1" parent="HVOIu-wAEDUk3OJ05yQn-14">
          <mxGeometry x="30" width="150" height="30" as="geometry">
            <mxRectangle width="150" height="30" as="alternateBounds" />
          </mxGeometry>
        </mxCell>
        <mxCell id="HVOIu-wAEDUk3OJ05yQn-17" value="timestampz" style="shape=partialRectangle;connectable=0;fillColor=none;top=0;left=0;bottom=0;right=0;align=left;spacingLeft=6;overflow=hidden;whiteSpace=wrap;html=1;" vertex="1" parent="HVOIu-wAEDUk3OJ05yQn-14">
          <mxGeometry x="180" width="79.75" height="30" as="geometry">
            <mxRectangle width="79.75" height="30" as="alternateBounds" />
          </mxGeometry>
        </mxCell>
        <mxCell id="HVOIu-wAEDUk3OJ05yQn-18" value="" style="shape=tableRow;horizontal=0;startSize=0;swimlaneHead=0;swimlaneBody=0;fillColor=none;collapsible=0;dropTarget=0;points=[[0,0.5],[1,0.5]];portConstraint=eastwest;top=0;left=0;right=0;bottom=0;" vertex="1" parent="HVOIu-wAEDUk3OJ05yQn-1">
          <mxGeometry y="150" width="259.75" height="30" as="geometry" />
        </mxCell>
        <mxCell id="HVOIu-wAEDUk3OJ05yQn-19" value="" style="shape=partialRectangle;connectable=0;fillColor=none;top=0;left=0;bottom=0;right=0;editable=1;overflow=hidden;whiteSpace=wrap;html=1;" vertex="1" parent="HVOIu-wAEDUk3OJ05yQn-18">
          <mxGeometry width="30" height="30" as="geometry">
            <mxRectangle width="30" height="30" as="alternateBounds" />
          </mxGeometry>
        </mxCell>
        <mxCell id="HVOIu-wAEDUk3OJ05yQn-20" value="status" style="shape=partialRectangle;connectable=0;fillColor=none;top=0;left=0;bottom=0;right=0;align=left;spacingLeft=6;overflow=hidden;whiteSpace=wrap;html=1;" vertex="1" parent="HVOIu-wAEDUk3OJ05yQn-18">
          <mxGeometry x="30" width="150" height="30" as="geometry">
            <mxRectangle width="150" height="30" as="alternateBounds" />
          </mxGeometry>
        </mxCell>
        <mxCell id="HVOIu-wAEDUk3OJ05yQn-21" value="enum" style="shape=partialRectangle;connectable=0;fillColor=none;top=0;left=0;bottom=0;right=0;align=left;spacingLeft=6;overflow=hidden;whiteSpace=wrap;html=1;" vertex="1" parent="HVOIu-wAEDUk3OJ05yQn-18">
          <mxGeometry x="180" width="79.75" height="30" as="geometry">
            <mxRectangle width="79.75" height="30" as="alternateBounds" />
          </mxGeometry>
        </mxCell>
        <mxCell id="HVOIu-wAEDUk3OJ05yQn-22" style="shape=tableRow;horizontal=0;startSize=0;swimlaneHead=0;swimlaneBody=0;fillColor=none;collapsible=0;dropTarget=0;points=[[0,0.5],[1,0.5]];portConstraint=eastwest;top=0;left=0;right=0;bottom=0;" vertex="1" parent="HVOIu-wAEDUk3OJ05yQn-1">
          <mxGeometry y="180" width="259.75" height="30" as="geometry" />
        </mxCell>
        <mxCell id="HVOIu-wAEDUk3OJ05yQn-23" style="shape=partialRectangle;connectable=0;fillColor=none;top=0;left=0;bottom=0;right=0;editable=1;overflow=hidden;whiteSpace=wrap;html=1;" vertex="1" parent="HVOIu-wAEDUk3OJ05yQn-22">
          <mxGeometry width="30" height="30" as="geometry">
            <mxRectangle width="30" height="30" as="alternateBounds" />
          </mxGeometry>
        </mxCell>
        <mxCell id="HVOIu-wAEDUk3OJ05yQn-24" value="sentAt" style="shape=partialRectangle;connectable=0;fillColor=none;top=0;left=0;bottom=0;right=0;align=left;spacingLeft=6;overflow=hidden;whiteSpace=wrap;html=1;" vertex="1" parent="HVOIu-wAEDUk3OJ05yQn-22">
          <mxGeometry x="30" width="150" height="30" as="geometry">
            <mxRectangle width="150" height="30" as="alternateBounds" />
          </mxGeometry>
        </mxCell>
        <mxCell id="HVOIu-wAEDUk3OJ05yQn-25" value="timestampz" style="shape=partialRectangle;connectable=0;fillColor=none;top=0;left=0;bottom=0;right=0;align=left;spacingLeft=6;overflow=hidden;whiteSpace=wrap;html=1;" vertex="1" parent="HVOIu-wAEDUk3OJ05yQn-22">
          <mxGeometry x="180" width="79.75" height="30" as="geometry">
            <mxRectangle width="79.75" height="30" as="alternateBounds" />
          </mxGeometry>
        </mxCell>
        <mxCell id="HVOIu-wAEDUk3OJ05yQn-27" style="edgeStyle=orthogonalEdgeStyle;rounded=0;orthogonalLoop=1;jettySize=auto;html=1;exitX=1;exitY=0.5;exitDx=0;exitDy=0;fontSize=12;startSize=8;endSize=8;entryX=0;entryY=0.5;entryDx=0;entryDy=0;" edge="1" parent="1" source="HVOIu-wAEDUk3OJ05yQn-6" target="fkK0YtPEtEqv72Plj34E-60">
          <mxGeometry relative="1" as="geometry">
            <mxPoint x="-53" y="552.9999847412109" as="targetPoint" />
            <Array as="points">
              <mxPoint x="-295" y="693" />
              <mxPoint x="-295" y="526" />
            </Array>
          </mxGeometry>
        </mxCell>
      </root>
    </mxGraphModel>
  </diagram>
</mxfile>
